<svg width="1308" height="949" viewBox="0 0 1308 949" fill="none" xmlns="http://www.w3.org/2000/svg">
<path d="M607.143 56.9633V0H302.15V328.263H271.985V355.779H26.704V396.693H0V426.828H156.268V483.705H186.433V453.998H204.73V570.599H271.985V602.942H302.15V825.003H589.465V851.679H744.588V900.093H791.728V888.236H838.208V908.491H941.669V851.679H991.649V949H1088.43V908.491H1106.38V841.305H1157.49V825.003H1308V730.868H1284.15V717.834H1251.2V691.284H1217.13V668.112H1157.49V622.252H1130.8V602.942H1106.38V570.599H1077.98V547.91H1042.76V512.67H991.649V500.601H978.586V483.705H941.669V370.262H904.751V355.779H884.873V328.263H848.524V279.989H808.767V256.818H791.728V230.267H770.146V212.406H744.588V189.234H723.574V135.167H693.472V119.72H655.419V96.548H622.477V56.9633H607.143Z" fill="#FAFF00"/>
</svg>
