<svg width="42" height="42" viewBox="0 0 42 42" fill="none" xmlns="http://www.w3.org/2000/svg">
<path d="M36.2727 0H5.72727C4.20831 0 2.75155 0.603407 1.67748 1.67748C0.603407 2.75155 0 4.20831 0 5.72727L0 36.2727C0 37.7917 0.603407 39.2485 1.67748 40.3225C2.75155 41.3966 4.20831 42 5.72727 42H36.2727C37.7917 42 39.2485 41.3966 40.3225 40.3225C41.3966 39.2485 42 37.7917 42 36.2727V5.72727C42 4.20831 41.3966 2.75155 40.3225 1.67748C39.2485 0.603407 37.7917 0 36.2727 0ZM14.3182 33.2373C14.3185 33.3537 14.2958 33.4691 14.2515 33.5768C14.2071 33.6845 14.142 33.7824 14.0597 33.8648C13.9775 33.9473 13.8798 34.0127 13.7722 34.0574C13.6646 34.102 13.5493 34.125 13.4328 34.125H9.66C9.54333 34.1253 9.42776 34.1026 9.31991 34.0581C9.21206 34.0136 9.11408 33.9482 9.03158 33.8657C8.94908 33.7832 8.88371 33.6852 8.83921 33.5774C8.79471 33.4695 8.77196 33.3539 8.77227 33.2373V17.4205C8.77227 17.185 8.8658 16.9592 9.03228 16.7927C9.19876 16.6263 9.42456 16.5327 9.66 16.5327H13.4328C13.6679 16.5334 13.8931 16.6272 14.059 16.7936C14.225 16.96 14.3182 17.1854 14.3182 17.4205V33.2373ZM11.5452 15.0341C10.8373 15.0341 10.1452 14.8242 9.55654 14.4308C8.96789 14.0375 8.50909 13.4785 8.23816 12.8244C7.96723 12.1703 7.89634 11.4506 8.03446 10.7562C8.17258 10.0618 8.5135 9.42403 9.01411 8.92342C9.51472 8.42282 10.1525 8.0819 10.8469 7.94378C11.5413 7.80566 12.261 7.87655 12.9151 8.14748C13.5691 8.4184 14.1282 8.8772 14.5215 9.46586C14.9148 10.0545 15.1248 10.7466 15.1248 11.4545C15.1248 12.4039 14.7476 13.3144 14.0763 13.9857C13.4051 14.657 12.4946 15.0341 11.5452 15.0341ZM34.0391 33.2993C34.0394 33.4066 34.0185 33.5129 33.9776 33.612C33.9367 33.7112 33.8766 33.8013 33.8008 33.8771C33.7249 33.953 33.6348 34.0131 33.5356 34.054C33.4365 34.0949 33.3302 34.1158 33.223 34.1155H29.1661C29.0589 34.1158 28.9526 34.0949 28.8534 34.054C28.7543 34.0131 28.6642 33.953 28.5883 33.8771C28.5125 33.8013 28.4524 33.7112 28.4115 33.612C28.3706 33.5129 28.3497 33.4066 28.35 33.2993V25.8897C28.35 24.7824 28.6745 21.0406 25.4553 21.0406C22.9616 21.0406 22.4533 23.6011 22.3531 24.7514V33.3089C22.3531 33.5233 22.2687 33.7291 22.1183 33.8818C21.9678 34.0345 21.7632 34.1219 21.5489 34.125H17.6305C17.5234 34.125 17.4174 34.1039 17.3185 34.0628C17.2196 34.0218 17.1298 33.9616 17.0542 33.8858C16.9786 33.81 16.9187 33.72 16.878 33.621C16.8372 33.522 16.8164 33.4159 16.8167 33.3089V17.3513C16.8164 17.2442 16.8372 17.1381 16.878 17.0391C16.9187 16.9401 16.9786 16.8501 17.0542 16.7743C17.1298 16.6985 17.2196 16.6383 17.3185 16.5973C17.4174 16.5562 17.5234 16.5351 17.6305 16.5351H21.5489C21.7653 16.5351 21.9729 16.6211 22.126 16.7742C22.279 16.9272 22.365 17.1348 22.365 17.3513V18.7306C23.2909 17.3393 24.6631 16.2702 27.5911 16.2702C34.0773 16.2702 34.0343 22.3268 34.0343 25.6534L34.0391 33.2993Z" fill="#EDEBEE"/>
</svg>
