<svg width="52" height="42" viewBox="0 0 52 42" fill="none" xmlns="http://www.w3.org/2000/svg">
<path d="M29.8757 21.3405L34.7507 17.2155L50 32.4648V35C50 37.7614 47.7614 40 45 40H7C4.23858 40 2 37.7614 2 35V32.4648L17.2493 17.2155L22.1243 21.3405C24.3614 23.2334 27.6386 23.2334 29.8757 21.3405ZM50 26.8079L37.8148 14.6228L50 4.31221V26.8079ZM46.5401 2L33.5718 12.9732L27.2919 18.287C26.5462 18.9179 25.4538 18.9179 24.7081 18.287L18.4282 12.9732L5.45989 2H46.5401ZM14.1852 14.6228L2 26.8079V4.31221L14.1852 14.6228Z" stroke="#EDEBEE" stroke-width="4"/>
</svg>
